# xmcd
#
# Track frame offsets: 
#        150
#        22062
#        55487
#        71475
#        83725
#        94950
#        128887
#        147162
#        164787
#        187550
#
# Disc length: 2673 seconds
#
# Revision: 3
# Processed by: cddbd v1.5.2PL0 Copyright (c) Steve Scherf et al.
# Submitted via: ExactAudioCopy v0.99pb5
#
DISCID=8a0a6f0a
DTITLE=B.B. King - Live at the Apollo
DYEAR=1900
DGENRE=Blues
TTITLE0=When Love Comes to Town
TTITLE1=Sweet Sixteen
TTITLE2=The Thrill Is Gone
TTITLE3=Ain't Nobody's Bizness
TTITLE4=Paying the Cost to be the Boss
TTITLE5=All Over Again
TTITLE6=Nightlife
TTITLE7=Since I Met You Baby
TTITLE8=Guess Who
TTITLE9=Peace to the World
EXTD=
EXTT0=
EXTT1=
EXTT2=
EXTT3=
EXTT4=
EXTT5=
EXTT6=
EXTT7=
EXTT8=
EXTT9=
PLAYORDER=
